<svg width="1200" height="800" viewBox="0 0 1200 800" xmlns="http://www.w3.org/2000/svg">
  <!-- Сетевой фон для интернет-провайдера -->
  <defs>
    <pattern id="grid" width="100" height="100" patternUnits="userSpaceOnUse">
      <path d="M 100 0 L 0 0 0 100" fill="none" stroke="#e9f5e6" stroke-width="1"/>
    </pattern>
    
    <!-- Градиент для узлов -->
    <radialGradient id="nodeGradient" cx="50%" cy="50%" r="50%" fx="50%" fy="50%">
      <stop offset="0%" stop-color="#71c55d" stop-opacity="0.8"/>
      <stop offset="100%" stop-color="#71c55d" stop-opacity="0"/>
    </radialGradient>
  </defs>
  
  <!-- Фоновая сетка -->
  <rect width="100%" height="100%" fill="url(#grid)" opacity="0.3"/>
  
  <!-- Соединительные линии -->
  <g stroke="#e0f0dc" stroke-width="1" opacity="0.5">
    <line x1="200" y1="150" x2="400" y2="250" />
    <line x1="400" y1="250" x2="600" y2="150" />
    <line x1="600" y1="150" x2="800" y2="250" />
    <line x1="800" y1="250" x2="1000" y2="150" />
    <line x1="200" y1="150" x2="200" y2="350" />
    <line x1="400" y1="250" x2="400" y2="450" />
    <line x1="600" y1="150" x2="600" y2="350" />
    <line x1="800" y1="250" x2="800" y2="450" />
    <line x1="1000" y1="150" x2="1000" y2="350" />
    <line x1="200" y1="350" x2="400" y2="450" />
    <line x1="400" y1="450" x2="600" y2="350" />
    <line x1="600" y1="350" x2="800" y2="450" />
    <line x1="800" y1="450" x2="1000" y2="350" />
    <line x1="200" y1="350" x2="200" y2="550" />
    <line x1="400" y1="450" x2="400" y2="650" />
    <line x1="600" y1="350" x2="600" y2="550" />
    <line x1="800" y1="450" x2="800" y2="650" />
    <line x1="1000" y1="350" x2="1000" y2="550" />
    <line x1="200" y1="550" x2="400" y2="650" />
    <line x1="400" y1="650" x2="600" y2="550" />
    <line x1="600" y1="550" x2="800" y2="650" />
    <line x1="800" y1="650" x2="1000" y2="550" />
  </g>
  
  <!-- Узлы сети -->
  <g fill="#71c55d" opacity="0.7">
    <circle cx="200" cy="150" r="8" />
    <circle cx="400" cy="250" r="8" />
    <circle cx="600" cy="150" r="8" />
    <circle cx="800" cy="250" r="8" />
    <circle cx="1000" cy="150" r="8" />
    <circle cx="200" cy="350" r="8" />
    <circle cx="400" cy="450" r="8" />
    <circle cx="600" cy="350" r="8" />
    <circle cx="800" cy="450" r="8" />
    <circle cx="1000" cy="350" r="8" />
    <circle cx="200" cy="550" r="8" />
    <circle cx="400" cy="650" r="8" />
    <circle cx="600" cy="550" r="8" />
    <circle cx="800" cy="650" r="8" />
    <circle cx="1000" cy="550" r="8" />
  </g>
  
  <!-- Подсвеченные узлы -->
  <g>
    <circle cx="400" cy="250" r="20" fill="url(#nodeGradient)" />
    <circle cx="800" cy="450" r="20" fill="url(#nodeGradient)" />
    <circle cx="600" cy="550" r="20" fill="url(#nodeGradient)" />
  </g>
  
  <!-- Пакеты данных (анимация имитируется статичными элементами) -->
  <g fill="#71c55d" opacity="0.9">
    <circle cx="300" cy="200" r="4" />
    <circle cx="500" cy="200" r="4" />
    <circle cx="700" cy="200" r="4" />
    <circle cx="900" cy="200" r="4" />
    <circle cx="300" cy="400" r="4" />
    <circle cx="500" cy="400" r="4" />
    <circle cx="700" cy="400" r="4" />
    <circle cx="900" cy="400" r="4" />
    <circle cx="300" cy="600" r="4" />
    <circle cx="500" cy="600" r="4" />
    <circle cx="700" cy="600" r="4" />
    <circle cx="900" cy="600" r="4" />
  </g>
</svg>